#!OML:ASF E:\acrobat2\Project_11_07_03\Capture day 1\Session 1\Acrobat.ASF
:FULLY-SPECIFIED
:DEGREES
485
root 10.515 6.38009 11.8993 -92.9325 3.97129 184.676
lowerback -0.715722 -1.58521 0.488666
upperback -0.27138 -2.09933 3.42562
thorax 0.234111 -1.03942 3.22194
lowerneck -0.0114891 -17.4756 -2.99256
upperneck -25.7242 -19.8232 24.6462
head -4.65252 -10.5314 8.58214
rclavicle -4.13472e-014 2.0276e-014
rhumerus 33.3064 -25.2727 -31.8031
rradius 111.713
rwrist -7.12994
rhand -15.7075 -39.8835
rfingers 7.12502
rthumb 10.4823 -69.6022
lclavicle -4.13472e-014 2.0276e-014
lhumerus 20.8741 39.3832 10.3393
lradius 105.447
lwrist 20.4648
lhand -3.16517 -27.9914
lfingers 7.12502
lthumb 22.5554 0.711062
rfemur 0.187566 25.3508 -10.3295
rtibia 8.19974
rfoot 20.1534 -21.0798
rtoes 28.2245
lfemur -0.0399523 -20.7519 0.183431
ltibia 16.5762
lfoot 35.1944 14.2021
ltoes 34.2629
486
root 10.5167 6.35851 11.924 -92.7622 4.0427 184.421
lowerback -1.06176 -1.70509 0.493705
upperback -0.376659 -2.27227 3.17218
thorax 0.318736 -1.12916 2.94624
lowerneck 0.00354991 -17.5093 -2.99707
upperneck -25.3304 -19.9235 24.8544
head -4.49191 -10.6047 8.60221
rclavicle -6.36111e-015 4.51241e-014
rhumerus 33.1748 -25.1588 -32.1881
rradius 111.537
rwrist -7.03275
rhand -15.8378 -40.0533
rfingers 7.12502
rthumb 10.3566 -69.7783
lclavicle -6.36111e-015 4.51241e-014
lhumerus 21.3477 39.2084 9.79972
lradius 105.008
lwrist 20.6469
lhand -3.33024 -27.87
lfingers 7.12502
lthumb 22.397 0.851586
rfemur -0.368415 24.7202 -9.98123
rtibia 8.41617
rfoot 18.919 -21.3705
rtoes 22.9725
lfemur -0.0523096 -20.7512 0.139305
ltibia 16.2447
lfoot 33.8592 14.9001
ltoes 34.7592
487
root 10.5192 6.33346 11.9487 -92.6539 4.06054 184.104
lowerback -1.3247 -1.8411 0.596288
upperback -0.471048 -2.4645 2.89517
thorax 0.361987 -1.2279 2.59305
lowerneck 0.0724324 -17.5397 -2.97786
upperneck -25.0143 -20.0036 25.0695
head -4.36933 -10.6715 8.63592
rclavicle 1.27222e-014 2.14687e-014
rhumerus 33.0367 -25.1231 -32.579
rradius 111.381
rwrist -7.07255
rhand -15.982 -40.2494
rfingers 7.12502
rthumb 10.2175 -69.9813
lclavicle 1.27222e-014 2.14687e-014
lhumerus 21.825 39.0853 9.2171
lradius 104.607
lwrist 20.9658
lhand -3.46595 -27.7125
lfingers 7.12502
lthumb 22.2667 1.02475
rfemur -0.838922 24.066 -9.5676
rtibia 8.7328
rfoot 18.219 -22.2562
rtoes 19.0186
lfemur -0.0820388 -20.7925 0.15088
ltibia 15.9401
lfoot 32.5083 15.0551
ltoes 34.9902
488
root 10.5225 6.30577 11.9728 -92.622 4.02229 183.792
lowerback -1.47769 -1.97057 0.809445
upperback -0.544271 -2.64598 2.59595
thorax 0.356302 -1.32064 2.15876
lowerneck 0.201082 -17.5574 -2.9495
upperneck -24.7976 -20.0453 25.289
head -4.29309 -10.722 8.68809
rclavicle -1.59028e-014 1.72943e-014
rhumerus 32.882 -25.1671 -32.9797
rradius 111.262
rwrist -7.18419
rhand -16.0918 -40.4165
rfingers 7.12502
rthumb 10.1116 -70.1535
lclavicle -1.59028e-014 1.72943e-014
lhumerus 22.29 39.0212 8.60986
lradius 104.276
lwrist 21.4105
lhand -3.53663 -27.509
lfingers 7.12502
lthumb 22.1989 1.23634
rfemur -1.18713 23.4532 -9.09
rtibia 9.06525
rfoot 18.2997 -23.6676
rtoes 17.3222
lfemur -0.10656 -20.8302 0.196583
ltibia 15.7143
lfoot 31.2529 14.5244
ltoes 34.4053
489
root 10.5263 6.27615 11.9963 -92.6624 3.93771 183.516
lowerback -1.52198 -2.08418 1.13345
upperback -0.59271 -2.80468 2.27509
thorax 0.304948 -1.40175 1.64516
lowerneck 0.384752 -17.5656 -2.89168
upperneck -24.7091 -20.0433 25.5221
head -4.27326 -10.7556 8.76168
rclavicle 0 7.05686e-015
rhumerus 32.7095 -25.2973 -33.3874
rradius 111.182
rwrist -7.32632
rhand -16.1199 -40.5367
rfingers 7.12502
rthumb 10.0845 -70.2751
lclavicle 0 7.05686e-015
lhumerus 22.7325 39.0235 7.98811
lradius 104.028
lwrist 21.9547
lhand -3.50647 -27.2751
lfingers 7.12502
lthumb 22.2278 1.46674
rfemur -1.42624 22.9052 -8.56174
rtibia 9.41311
rfoot 19.1778 -25.4607
rtoes 17.7865
lfemur -0.119062 -20.8212 0.257593
ltibia 15.5757
lfoot 30.1545 13.4046
ltoes 32.8803
490
root 10.5302 6.24454 12.0179 -92.7541 3.85018 183.283
lowerback -1.49573 -2.18032 1.52491
upperback -0.614872 -2.93877 1.92694
thorax 0.232388 -1.47067 1.06999
lowerneck 0.625173 -17.567 -2.78844
upperneck -24.7782 -19.991 25.7812
head -4.32054 -10.7719 8.86221
rclavicle 2.70347e-014 2.49475e-014
rhumerus 32.5195 -25.5152 -33.7884
rradius 111.134
rwrist -7.49055
rhand -16.0712 -40.6035
rfingers 7.12502
rthumb 10.1315 -70.3395
lclavicle 2.70347e-014 2.49475e-014
lhumerus 23.1502 39.0952 7.36357
lradius 103.86
lwrist 22.5682
lhand -3.35497 -27.0272
lfingers 7.12502
lthumb 22.3733 1.69721
rfemur -1.56514 22.419 -8.03978
rtibia 9.78692
rfoot 20.4773 -27.4359
rtoes 19.7771
lfemur -0.13196 -20.7665 0.289885
ltibia 15.5161
lfoot 29.1617 11.9857
ltoes 30.683
491
root 10.534 6.21175 12.0371 -92.8822 3.79055 183.112
lowerback -1.41542 -2.25494 1.93813
upperback -0.610793 -3.04222 1.55519
thorax 0.150707 -1.5244 0.462058
lowerneck 0.94601 -17.5472 -2.69658
upperneck -25.0045 -19.8736 26.0489
head -4.43633 -10.7596 8.9952
rclavicle -1.90833e-014 1.44119e-014
rhumerus 32.3094 -25.8114 -34.1564
rradius 111.124
rwrist -7.69423
rhand -15.9851 -40.6372
rfingers 7.12502
rthumb 10.2145 -70.3692
lclavicle -1.90833e-014 1.44119e-014
lhumerus 23.5382 39.2351 6.74716
lradius 103.763
lwrist 23.2157
lhand -3.09584 -26.7707
lfingers 7.12502
lthumb 22.622 1.9236
rfemur -1.61708 22.0038 -7.56613
rtibia 10.18
rfoot 21.7824 -29.2957
rtoes 22.4071
lfemur -0.147142 -20.6515 0.271788
ltibia 15.5273
lfoot 28.2439 10.5286
ltoes 28.299
492
root 10.5373 6.17928 12.053 -93.0292 3.77209 182.985
lowerback -1.28537 -2.31627 2.34278
upperback -0.589299 -3.1251 1.16861
thorax 0.0561781 -1.56794 -0.153178
lowerneck 1.27877 -17.5178 -2.60051
upperneck -25.3106 -19.7174 26.3436
head -4.58179 -10.7307 9.1482
rclavicle 4.77083e-015 -2.67365e-014
rhumerus 32.082 -26.1686 -34.479
rradius 111.163
rwrist -7.95553
rhand -15.8928 -40.6788
rfingers 7.12502
rthumb 10.3036 -70.4064
lclavicle 4.77083e-015 -2.67365e-014
lhumerus 23.8848 39.432 6.14238
lradius 103.726
lwrist 23.8513
lhand -2.77706 -26.5157
lfingers 7.12502
lthumb 22.9279 2.14103
rfemur -1.59913 22.0315 -7.17851
rtibia 10.5903
rfoot 22.2234 -30.972
rtoes 25.1885
lfemur -0.191524 -20.5013 0.202679
ltibia 15.5868
lfoot 27.4702 9.13534
ltoes 25.9698
493
root 10.54 6.14772 12.0651 -93.1916 3.79842 182.883
lowerback -1.11186 -2.37301 2.71145
upperback -0.555004 -3.19852 0.779479
thorax -0.0497736 -1.60675 -0.748616
lowerneck 1.59111 -17.4763 -2.53567
upperneck -25.6108 -19.5504 26.5905
head -4.72691 -10.6882 9.28971
rclavicle 4.77083e-015 9.44227e-015
rhumerus 31.8485 -26.557 -34.7526
rradius 111.259
rwrist -8.28789
rhand -15.8276 -40.7517
rfingers 7.12502
rthumb 10.3664 -70.4762
lclavicle 4.77083e-015 9.44227e-015
lhumerus 24.1683 39.6653 5.54557
lradius 103.748
lwrist 24.4442
lhand -2.45688 -26.2726
lfingers 7.12502
lthumb 23.2351 2.34566
rfemur -1.47616 21.8656 -6.8618
rtibia 10.9617
rfoot 22.2625 -31.8444
rtoes 27.373
lfemur -0.288763 -20.3475 0.0895537
ltibia 15.7007
lfoot 26.9406 7.80825
ltoes 23.4105
494
root 10.5428 6.11829 12.0732 -93.3561 3.86519 182.8
lowerback -0.90502 -2.43131 3.04174
upperback -0.514742 -3.27059 0.384798
thorax -0.168402 -1.64484 -1.32665
lowerneck 1.86605 -17.432 -2.47932
upperneck -25.8708 -19.3811 26.8643
head -4.84984 -10.6439 9.43328
rclavicle -1.43125e-014 5.96354e-015
rhumerus 31.6125 -26.9489 -35.0014
rradius 111.417
rwrist -8.69807
rhand -15.8277 -40.8758
rfingers 7.12502
rthumb 10.3664 -70.6003
lclavicle -1.43125e-014 5.96354e-015
lhumerus 24.3748 39.9181 4.92839
lradius 103.826
lwrist 24.9865
lhand -2.18779 -26.0615
lfingers 7.12502
lthumb 23.4933 2.52397
rfemur -1.2542 21.5115 -6.61633
rtibia 11.2444
rfoot 22.1971 -31.9032
rtoes 28.5706
lfemur -0.458638 -20.2263 -0.0492819
ltibia 15.8647
lfoot 26.7232 6.56402
ltoes 20.9047
495
root 10.5462 6.09088 12.0757 -93.4976 3.96554 182.743
lowerback -0.714318 -2.48398 3.30542
upperback -0.461735 -3.33368 0.010695
thorax -0.261266 -1.67755 -1.84777
lowerneck 2.06198 -17.3985 -2.43702
upperneck -26.0605 -19.2387 27.1647
head -4.92888 -10.6088 9.56948
rclavicle 1.11319e-014 1.63997e-014
rhumerus 31.3957 -27.3413 -35.22
rradius 111.643
rwrist -9.17599
rhand -15.8958 -41.0481
rfingers 7.12502
rthumb 10.3007 -70.7758
lclavicle 1.11319e-014 1.63997e-014
lhumerus 24.4964 40.1945 4.32999
lradius 103.955
lwrist 25.479
lhand -2.01897 -25.8896
lfingers 7.12502
lthumb 23.6552 2.67499
rfemur -0.957878 21.0345 -6.44835
rtibia 11.4034
rfoot 22.0457 -31.4214
rtoes 28.8718
lfemur -0.715013 -20.1588 -0.203843
ltibia 16.0668
lfoot 26.9352 5.41661
ltoes 18.12
496
root 10.5499 6.06657 12.075 -93.5998 4.08494 182.728
lowerback -0.557998 -2.52165 3.50619
upperback -0.393598 -3.37672 -0.326354
thorax -0.31356 -1.69889 -2.2985
lowerneck 2.16817 -17.381 -2.4219
upperneck -26.1902 -19.1298 27.5032
head -4.96059 -10.5849 9.70228
rclavicle -1.59028e-015 1.81888e-014
rhumerus 31.2072 -27.7381 -35.409
rradius 111.94
rwrist -9.7054
rhand -16.005 -41.2302
rfingers 7.12502
rthumb 10.1953 -70.9632
lclavicle -1.59028e-015 1.81888e-014
lhumerus 24.5389 40.503 3.77572
lradius 104.126
lwrist 25.949
lhand -1.96719 -25.7296
lfingers 7.12502
lthumb 23.7049 2.82859
rfemur -0.622297 20.5574 -6.36106
rtibia 11.4321
rfoot 21.7125 -30.8621
rtoes 28.8888
lfemur -1.03084 -20.1751 -0.352628
ltibia 16.2819
lfoot 27.5806 4.65364
ltoes 16.0961
497
root 10.5541 6.04555 12.0715 -93.6548 4.20151 182.757
lowerback -0.452437 -2.53898 3.64634
upperback -0.309171 -3.39414 -0.602555
thorax -0.312333 -1.70582 -2.65675
lowerneck 2.2486 -17.3711 -2.45247
upperneck -26.3487 -19.0264 27.8848
head -4.98435 -10.5614 9.85357
rclavicle -7.63333e-014 1.67973e-014
rhumerus 31.05 -28.1462 -35.5428
rradius 112.299
rwrist -10.2852
rhand -16.1339 -41.4023
rfingers 7.12502
rthumb 10.071 -71.1413
lclavicle -7.63333e-014 1.67973e-014
lhumerus 24.5094 40.8509 3.29321
lradius 104.325
lwrist 26.4241
lhand -2.01088 -25.557
lfingers 7.12502
lthumb 23.663 3.00667
rfemur -0.27361 20.1999 -6.32566
rtibia 11.354
rfoot 21.0464 -30.5474
rtoes 29.1124
lfemur -1.38465 -20.2601 -0.470218
ltibia 16.4803
lfoot 28.6835 4.33983
ltoes 14.3673
